<?xml version="1.0" standalone="no"?>
<!DOCTYPE svg PUBLIC "-//W3C//DTD SVG 20010904//EN"
 "http://www.w3.org/TR/2001/REC-SVG-20010904/DTD/svg10.dtd">
<svg version="1.0" xmlns="http://www.w3.org/2000/svg"
 width="2000.000000pt" height="1653.000000pt" viewBox="0 0 2000.000000 1653.000000"
 preserveAspectRatio="xMidYMid meet">

<g transform="translate(0.000000,1653.000000) scale(0.100000,-0.100000)"
fill="#000000" stroke="none">
<path d="M6810 15381 c0 -5 -69 -45 -152 -89 -174 -90 -321 -178 -390 -231
-25 -20 -80 -57 -122 -84 -48 -31 -121 -95 -208 -183 -73 -74 -195 -187 -270
-250 -203 -170 -323 -306 -335 -379 -7 -45 20 -83 89 -120 86 -47 184 -35 257
30 20 17 95 73 166 123 72 50 178 126 236 169 316 233 398 293 404 293 8 0 50
-90 115 -249 74 -179 86 -191 185 -191 45 0 72 6 106 25 128 68 703 273 714
255 11 -18 -46 -243 -90 -356 -117 -300 -231 -551 -289 -638 -72 -108 -70
-126 12 -168 95 -48 173 -47 307 3 44 16 56 26 61 47 3 15 23 68 44 117 80
187 273 665 315 778 23 65 63 153 88 196 69 118 157 392 157 484 -1 42 -33
113 -58 126 -39 21 -194 13 -279 -13 -43 -14 -127 -39 -188 -56 -60 -18 -235
-85 -387 -151 -153 -65 -286 -119 -297 -119 -16 0 -20 12 -30 83 -5 45 -13
164 -16 265 -7 203 -18 260 -55 279 -29 15 -90 17 -90 4z m-340 -252 c0 -21
90 -201 131 -260 21 -32 49 -65 61 -74 l23 -16 -66 -62 -66 -63 -11 28 c-6 15
-17 28 -25 28 -10 0 -13 8 -10 25 6 30 -54 141 -108 200 -21 23 -57 50 -79 60
-22 10 -40 21 -40 24 0 3 28 24 63 47 124 82 127 83 127 63z m1146 -211 c5
-18 8 -103 9 -190 l0 -156 -44 -22 c-24 -11 -44 -20 -46 -18 -1 2 -14 39 -29
83 -15 44 -48 120 -72 169 -25 49 -43 90 -42 91 10 6 195 74 205 74 6 1 15
-14 19 -31z m-1546 -148 c33 -14 72 -97 69 -145 -4 -46 10 -74 43 -91 l30 -15
-94 -70 -93 -70 -8 68 c-9 80 -23 96 -78 87 -25 -4 -61 1 -109 16 l-72 22 39
27 c21 14 81 70 133 124 84 87 96 96 104 78 4 -11 21 -25 36 -31z m1100 -8 c0
-9 9 -34 20 -55 27 -50 25 -64 -12 -87 -64 -39 -442 -192 -503 -203 -28 -5
-32 -2 -48 36 -9 23 -17 47 -17 53 0 15 259 134 292 134 15 0 34 9 45 23 19
22 188 116 211 117 6 0 12 -8 12 -18z m945 -14 c-4 -13 -28 -72 -54 -133 l-47
-110 -42 3 c-23 2 -67 -4 -98 -13 -31 -9 -68 -14 -83 -11 -14 3 -51 -1 -81 -9
-30 -8 -55 -13 -57 -12 -1 2 0 27 4 55 5 49 7 52 34 52 16 0 50 9 77 19 94 37
299 141 317 161 24 27 38 25 30 -2z m-503 -869 c23 -12 57 -19 92 -19 l55 0
-47 -100 c-47 -99 -62 -119 -62 -79 0 49 -16 59 -98 60 -42 0 -94 3 -114 7
l-37 7 28 65 c15 36 30 72 33 81 5 13 14 14 60 7 29 -5 70 -18 90 -29z"/>
<path d="M8500 14921 l-35 -6 -82 -485 c-103 -612 -114 -672 -157 -854 -19
-82 -43 -195 -53 -252 l-17 -103 39 -35 c47 -42 106 -63 197 -72 140 -14 305
58 475 206 229 200 375 345 428 425 30 44 64 93 77 108 l23 29 33 -109 c18
-59 48 -160 68 -223 56 -181 104 -396 111 -500 13 -192 68 -270 213 -299 74
-14 208 14 249 53 52 50 122 191 138 280 8 44 45 191 80 326 36 135 76 289 89
342 13 53 34 134 47 180 13 46 32 134 43 197 18 113 18 113 -3 150 -48 85
-173 156 -287 162 l-60 4 -18 -70 c-10 -38 -25 -113 -34 -165 -25 -155 -104
-562 -115 -597 -20 -61 -17 -65 -126 231 -56 153 -156 366 -200 422 -29 39
-94 83 -134 91 -51 10 -150 -48 -249 -147 -92 -91 -200 -187 -265 -236 -124
-94 -236 -174 -243 -174 -4 0 -5 35 -1 78 4 42 13 147 19 232 6 85 16 182 21
215 17 113 30 404 19 444 -14 55 -93 125 -161 145 -55 17 -71 17 -129 7z m236
-493 c-4 -57 -11 -121 -15 -143 l-7 -40 -14 30 c-8 16 -26 35 -40 43 -37 20
-152 8 -212 -21 -27 -13 -48 -19 -48 -13 0 18 39 198 43 203 3 2 31 0 63 -6
81 -12 200 8 219 38 15 25 18 5 11 -91z m734 -128 c0 -6 -9 -27 -20 -48 -18
-32 -20 -48 -14 -119 3 -46 3 -108 -1 -138 -6 -49 -9 -55 -30 -55 -13 0 -32
-11 -44 -26 l-20 -26 -21 34 c-11 18 -25 49 -30 68 -5 19 -23 57 -40 84 l-31
49 63 64 c35 35 83 77 107 94 44 29 81 38 81 19z m675 -140 c21 -22 38 -30 64
-30 20 0 75 -14 123 -32 96 -36 94 -31 60 -113 -9 -22 -17 -42 -19 -44 -1 -2
-16 8 -33 22 -49 41 -156 90 -211 95 -45 4 -50 7 -45 26 3 11 8 40 12 64 4 23
10 42 13 42 4 0 20 -13 36 -30z m-1487 -242 c29 -1 33 -4 28 -22 -3 -12 -6
-47 -6 -79 l0 -58 -42 -18 c-24 -11 -74 -22 -113 -25 -38 -4 -103 -14 -142
-23 -40 -9 -75 -14 -79 -11 -3 4 3 50 13 103 17 92 19 98 44 101 14 1 41 12
60 24 30 19 44 20 119 15 47 -3 100 -6 118 -7z m1183 -298 c-6 -8 -22 -36 -36
-62 -14 -27 -48 -66 -77 -89 -49 -39 -118 -79 -135 -79 -5 0 -19 37 -32 83
-13 45 -26 90 -28 100 -4 12 0 17 16 17 54 0 129 70 198 184 l37 60 33 -100
c25 -73 31 -103 24 -114z m-977 104 c10 -53 18 -129 17 -170 -1 -66 1 -77 22
-98 l24 -24 -51 -50 c-46 -45 -205 -157 -212 -149 -2 1 12 32 29 67 l32 65 0
187 0 187 55 40 c30 22 58 40 61 41 3 0 13 -43 23 -96z m1279 -119 c26 -22 56
-55 67 -72 11 -18 27 -33 36 -33 22 0 14 -49 -32 -191 -26 -83 -64 -244 -64
-277 0 -2 -4 0 -10 3 -5 3 -10 14 -10 23 0 9 -29 61 -64 115 -49 75 -69 119
-90 190 -30 108 -31 120 -10 138 8 7 13 21 11 31 -5 17 3 61 24 141 l10 38 42
-33 c23 -18 64 -51 90 -73z"/>
<path d="M10900 14108 c-38 -52 -81 -186 -131 -408 -47 -205 -59 -250 -144
-510 -109 -335 -118 -374 -119 -537 l-1 -142 31 -32 c27 -27 41 -32 105 -39
82 -9 113 -1 166 44 36 30 95 169 138 327 41 147 61 208 94 289 166 411 201
597 148 790 -36 128 -68 179 -146 229 -69 44 -103 42 -141 -11z m-23 -411 c70
-49 149 -75 236 -78 39 -2 47 -5 47 -22 0 -20 -28 -136 -37 -150 -2 -4 -20 6
-39 22 -18 17 -51 35 -71 40 -130 34 -165 41 -198 41 -30 0 -35 3 -31 18 3 9
10 40 16 67 17 84 20 95 25 95 3 0 26 -15 52 -33z m-144 -736 c38 -12 96 -21
132 -21 75 0 75 -1 49 -89 l-15 -53 -32 34 c-47 51 -117 72 -212 63 -41 -4
-75 -5 -75 -3 0 2 7 27 15 55 15 49 16 51 43 43 15 -5 57 -18 95 -29z"/>
<path d="M11527 13890 c-29 -23 -52 -104 -42 -149 9 -44 103 -125 286 -248 86
-57 167 -115 179 -128 l21 -23 -56 -242 c-63 -268 -132 -514 -194 -690 -57
-159 -53 -249 11 -317 31 -33 125 -66 165 -58 29 5 37 14 69 83 44 96 106 282
129 387 9 44 26 109 37 145 17 59 88 445 109 599 5 35 10 66 12 68 3 2 47 -6
98 -17 117 -27 193 -23 241 10 45 30 78 79 78 113 0 60 -53 142 -110 172 -24
12 -273 86 -574 170 -71 19 -192 60 -268 90 -77 30 -145 55 -152 55 -7 0 -25
-9 -39 -20z m642 -214 c73 -19 136 -38 139 -41 3 -3 6 -69 7 -145 0 -120 -2
-139 -15 -136 -8 3 -29 7 -47 11 -31 6 -32 5 -38 -32 -11 -62 -11 -62 -47 -53
-18 4 -49 14 -68 23 -19 8 -48 19 -65 24 -23 6 -31 15 -33 36 -2 16 -10 31
-18 34 -13 5 -12 9 5 24 27 25 54 154 49 230 -2 32 -4 59 -3 59 1 0 61 -16
134 -34z m-213 -906 c44 -16 71 -19 107 -15 55 8 55 11 26 -95 l-22 -78 -36 4
c-20 2 -75 6 -122 10 l-87 6 25 81 c33 111 31 107 41 107 5 0 35 -9 68 -20z"/>
<path d="M15745 13829 c-360 -30 -785 -184 -1069 -388 -44 -32 -121 -85 -171
-118 -377 -253 -697 -587 -1014 -1058 -365 -542 -545 -909 -772 -1575 -53
-157 -122 -350 -152 -430 -59 -156 -110 -376 -123 -530 -7 -84 -11 -93 -346
-860 -187 -426 -341 -776 -343 -778 -2 -2 -17 17 -35 43 l-32 46 351 1070 352
1070 -31 367 c-21 251 -35 376 -45 395 -8 16 -15 38 -15 50 -1 37 -45 152 -78
199 -51 74 -122 137 -197 173 -69 34 -1029 339 -6365 2021 -606 190 -628 197
-727 202 -60 3 -129 0 -165 -7 -334 -63 -790 -357 -1192 -765 -194 -199 -243
-270 -748 -1083 -831 -1340 -869 -1404 -1033 -1738 -119 -244 -194 -421 -264
-628 -99 -291 -141 -509 -141 -732 0 -205 30 -326 112 -453 43 -66 67 -82 122
-82 31 0 34 -4 73 -82 22 -46 66 -130 97 -188 l57 -105 3980 -1625 c2189 -893
3985 -1627 3990 -1631 6 -4 -8 -64 -36 -155 -63 -200 -132 -476 -146 -582 -42
-318 60 -668 282 -962 128 -170 375 -411 520 -507 28 -18 51 -48 82 -106 46
-87 122 -179 169 -203 17 -9 64 -19 107 -24 51 -5 587 -153 1621 -445 1138
-322 1564 -438 1617 -442 55 -4 86 -1 140 16 62 19 150 81 1058 750 l990 730
75 17 c213 47 384 184 471 379 29 64 37 75 54 70 11 -3 53 -8 92 -11 95 -9
147 10 205 75 24 27 144 176 267 332 204 258 232 288 297 332 83 54 151 137
182 220 31 82 450 1673 463 1757 15 99 6 274 -20 375 -12 44 -62 197 -112 340
l-90 260 145 399 c135 371 151 408 222 525 197 323 261 449 330 654 103 302
102 465 -1 563 l-35 32 41 7 c83 14 125 79 184 285 79 278 111 522 121 910 10
368 -14 660 -83 1005 -187 946 -637 1658 -1329 2103 -383 246 -900 432 -1409
506 -131 19 -411 27 -550 15z m-10825 -643 c1601 -493 6708 -2113 6736 -2137
8 -7 9 -22 3 -47 -4 -20 -291 -982 -637 -2137 -346 -1155 -685 -2291 -753
-2524 -69 -235 -130 -426 -137 -428 -7 -3 -214 68 -460 157 -246 89 -1030 373
-1742 630 -1568 567 -4037 1475 -4225 1555 -104 44 -160 52 -210 30 -22 -8
-47 -23 -56 -31 -16 -14 -28 -12 -133 27 -93 33 -116 46 -116 61 0 45 -63 119
-130 153 -19 10 -105 43 -190 73 -141 50 -165 55 -261 60 -102 4 -107 4 -122
-18 l-16 -23 -108 39 -108 39 -5 65 -5 65 -51 26 -52 26 57 104 c66 120 384
645 744 1229 607 982 1874 3001 1891 3012 16 11 35 10 86 -6z m10719 -631
c242 -30 434 -76 717 -170 513 -171 900 -399 1219 -719 501 -503 740 -1063
970 -2266 47 -243 69 -306 124 -352 l29 -25 -53 -12 c-121 -27 -181 -121 -275
-426 -27 -87 -130 -290 -208 -410 -347 -534 -902 -874 -1592 -975 -168 -25
-455 -27 -624 -5 -381 50 -729 216 -1076 514 -423 363 -772 715 -975 986 -257
341 -405 697 -471 1130 -25 160 -30 579 -10 750 73 605 202 990 447 1331 274
381 702 614 1219 664 121 11 406 4 559 -15z m-13589 -3747 c0 -12 -14 -9 -35
6 -12 9 -16 19 -11 32 7 18 8 17 26 -6 11 -14 20 -28 20 -32z"/>
<path d="M5892 12250 c-210 -56 -364 -201 -481 -451 -111 -236 -140 -514 -76
-716 70 -222 289 -417 511 -455 205 -34 447 99 593 327 215 337 236 692 60
1000 -86 152 -181 244 -293 288 -76 29 -220 33 -314 7z m189 -290 c111 -31
216 -210 235 -398 14 -147 -38 -296 -163 -472 -85 -118 -131 -152 -213 -158
-53 -4 -69 0 -125 27 -78 38 -143 100 -174 164 -29 59 -45 180 -36 272 19 194
152 452 272 526 75 46 136 58 204 39z"/>
<path d="M7303 11735 c-67 -20 -141 -73 -195 -138 -48 -58 -131 -212 -181
-335 -66 -162 -173 -615 -183 -777 -4 -65 -2 -86 13 -115 23 -44 73 -73 128
-74 92 -2 132 61 175 275 33 161 45 196 69 204 9 3 91 4 182 3 182 -3 238 8
335 63 67 38 149 126 180 193 62 135 71 331 21 439 -53 115 -182 222 -316 261
-65 19 -170 20 -228 1z m197 -304 c56 -29 80 -73 80 -146 0 -83 -30 -140 -95
-180 -47 -29 -52 -30 -172 -30 -68 0 -123 4 -123 8 0 5 12 43 26 85 32 96 84
190 133 242 32 33 44 40 77 40 22 0 55 -8 74 -19z"/>
<path d="M8414 11429 c-53 -15 -100 -78 -128 -171 -231 -772 -271 -944 -247
-1077 33 -186 166 -331 399 -438 69 -31 84 -34 144 -31 57 3 72 8 96 31 57 55
61 140 10 195 -13 13 -73 49 -135 79 -156 75 -213 143 -213 251 0 42 28 178
45 220 18 43 40 42 196 -7 166 -52 170 -53 229 -40 92 20 141 92 119 174 -16
56 -56 80 -227 134 -88 28 -171 60 -185 72 -35 27 -36 75 -2 171 29 82 48 108
82 108 14 0 97 -25 185 -55 88 -30 172 -55 186 -55 45 1 109 36 126 69 33 62
16 129 -46 187 -40 38 -71 54 -163 84 -38 12 -74 26 -80 30 -20 15 -172 60
-235 70 -76 12 -113 12 -156 -1z"/>
<path d="M9574 11065 c-59 -35 -88 -85 -145 -252 -76 -224 -303 -1020 -315
-1104 -13 -95 34 -177 113 -198 92 -25 149 17 187 138 13 42 41 156 61 251 20
96 53 226 72 289 20 64 48 157 63 206 17 57 32 90 41 90 17 0 124 -368 229
-782 38 -150 76 -286 84 -302 9 -16 29 -40 46 -54 85 -72 199 -28 256 98 13
28 71 228 129 445 59 217 124 458 146 536 42 150 47 205 25 257 -20 48 -50 69
-104 75 -58 5 -113 -17 -141 -57 -11 -15 -56 -144 -101 -286 -46 -143 -87
-275 -93 -292 -12 -38 -22 -41 -37 -13 -6 11 -66 209 -134 440 -89 301 -132
432 -151 460 -53 77 -155 101 -231 55z"/>
<path d="M4094 10291 c-86 -39 -102 -81 -205 -531 -87 -381 -128 -536 -189
-714 -30 -87 -39 -128 -34 -150 24 -117 157 -154 246 -69 32 31 29 24 118 298
77 239 89 261 144 250 97 -20 512 -148 529 -162 29 -27 18 -96 -53 -331 -33
-110 -63 -221 -66 -246 -18 -131 75 -230 185 -197 75 22 76 23 192 441 44 157
106 366 139 465 99 303 140 444 140 491 0 58 -26 120 -60 144 -37 26 -111 36
-150 20 -50 -21 -68 -64 -160 -377 -23 -80 -40 -103 -76 -103 -13 0 -93 20
-177 44 -83 24 -205 56 -270 71 -130 31 -148 40 -150 76 -1 29 58 291 84 373
23 72 24 98 3 142 -32 67 -120 97 -190 65z"/>
<path d="M5981 9630 c-61 -13 -182 -72 -255 -124 -85 -60 -196 -181 -243 -262
-45 -79 -67 -132 -120 -294 -31 -96 -37 -129 -37 -200 0 -228 145 -492 314
-573 171 -82 415 -87 574 -12 139 66 317 294 354 455 6 25 21 72 32 105 29 81
49 366 32 463 -13 79 -66 190 -121 253 -56 64 -162 135 -251 165 -83 29 -205
39 -279 24z m203 -300 c68 -26 139 -88 160 -139 22 -57 30 -155 17 -242 -13
-96 -101 -357 -142 -420 -59 -92 -154 -140 -279 -142 -110 -2 -165 17 -225 77
-66 67 -96 142 -103 256 -6 114 10 181 70 303 45 90 63 113 147 195 53 52 112
102 131 113 49 26 153 25 224 -1z"/>
<path d="M6944 9241 c-38 -16 -63 -62 -98 -172 -80 -252 -159 -658 -158 -814
1 -117 34 -265 79 -346 35 -66 168 -190 240 -225 142 -70 326 -24 480 119 132
124 228 294 317 560 63 187 136 487 136 557 0 89 -72 155 -159 147 -28 -3 -52
-13 -67 -29 -26 -26 -69 -161 -128 -408 -19 -80 -46 -179 -61 -220 -44 -125
-140 -312 -185 -363 -86 -98 -192 -132 -266 -86 -49 30 -92 124 -100 219 -11
144 38 457 116 728 56 196 54 267 -10 314 -29 21 -106 32 -136 19z"/>
<path d="M8354 8762 c-92 -32 -152 -71 -211 -135 -96 -104 -134 -252 -99 -384
25 -95 59 -145 179 -270 125 -130 147 -166 147 -236 0 -34 -6 -50 -26 -70 -45
-45 -78 -45 -288 7 -207 50 -230 53 -280 32 -70 -29 -99 -102 -71 -174 31 -75
63 -92 306 -157 193 -51 300 -50 416 4 192 90 280 313 205 522 -29 83 -91 168
-202 277 -53 53 -103 107 -109 120 -16 31 -6 72 29 121 54 74 108 86 226 50
57 -18 74 -19 105 -10 44 13 74 48 90 101 16 52 7 76 -46 137 -85 96 -214 119
-371 65z"/>
<path d="M9255 8534 c-16 -9 -47 -32 -67 -52 -34 -32 -45 -57 -106 -246 -73
-221 -153 -476 -184 -586 -60 -212 -34 -422 63 -519 43 -43 143 -90 278 -130
144 -43 204 -39 253 15 25 29 38 89 27 128 -15 55 -65 90 -188 131 -174 58
-192 82 -171 231 13 89 36 134 70 134 10 0 92 -23 182 -52 94 -30 182 -51 208
-52 84 0 141 54 148 141 4 49 2 55 -30 87 -25 25 -54 40 -108 56 -145 42 -313
105 -323 122 -8 12 0 48 31 146 23 71 49 135 57 142 13 11 38 6 143 -28 70
-22 142 -43 159 -47 70 -14 145 38 159 110 9 51 -29 124 -81 152 -22 12 -110
45 -195 74 -177 59 -273 72 -325 43z"/>
<path d="M15959 11867 c-36 -12 -92 -38 -124 -57 -118 -70 -273 -253 -351
-413 -21 -43 -32 -56 -44 -51 -8 4 -85 31 -170 60 -287 97 -478 109 -655 43
-45 -17 -76 -38 -126 -88 -72 -72 -102 -134 -121 -246 -28 -171 53 -446 212
-723 l68 -120 -82 -85 c-232 -240 -333 -502 -281 -726 49 -207 224 -383 480
-482 111 -44 284 -86 408 -100 l105 -12 42 -131 c48 -151 138 -345 207 -449
61 -92 169 -206 240 -253 178 -118 385 -116 565 6 121 81 236 216 325 381 44
81 25 80 206 15 170 -61 297 -86 434 -86 120 0 194 15 274 56 156 79 237 263
210 477 -21 162 -102 377 -218 577 l-61 104 90 95 c312 330 371 664 166 939
-137 184 -460 328 -824 367 l-61 7 -45 137 c-141 423 -351 693 -597 765 -79
23 -192 20 -272 -7z m276 -207 c106 -51 233 -208 320 -394 39 -83 105 -256
105 -275 0 -5 -51 -11 -112 -15 -62 -3 -176 -14 -253 -23 l-140 -16 -120 80
c-66 44 -176 113 -245 152 -69 39 -132 75 -140 80 -13 8 -11 17 14 62 102 189
227 321 346 366 54 20 165 12 225 -17z m-1217 -386 c87 -17 312 -90 337 -108
15 -11 14 -21 -18 -116 -28 -85 -74 -256 -102 -385 -3 -14 -43 -40 -122 -82
-65 -35 -160 -90 -211 -124 -51 -33 -95 -59 -97 -57 -1 1 -28 47 -58 102 -118
210 -178 388 -180 531 0 68 4 99 17 125 32 63 77 100 146 121 44 13 208 9 288
-7z m665 -273 c142 -81 196 -115 197 -121 0 -3 -33 -14 -72 -24 -40 -10 -135
-40 -210 -66 -85 -28 -138 -42 -138 -35 0 7 4 25 9 41 5 16 26 84 47 152 28
91 41 121 52 117 7 -3 59 -31 115 -64z m1031 -229 c6 -10 41 -209 52 -292 l6
-54 -78 73 c-44 41 -127 115 -187 164 -59 50 -104 94 -100 98 14 14 299 23
307 11z m449 -51 c323 -82 517 -256 517 -466 0 -104 -47 -225 -132 -340 -53
-71 -147 -175 -158 -175 -5 0 -51 55 -104 123 -52 67 -140 173 -196 235 l-101
113 -10 117 c-10 119 -45 382 -56 416 -5 18 -1 19 61 12 36 -4 117 -19 179
-35z m-977 -56 c123 -92 301 -244 457 -389 l147 -138 0 -178 c0 -246 -33 -609
-57 -630 -46 -41 -593 -210 -679 -210 -41 0 -310 218 -558 453 l-139 131 6
251 c4 214 22 425 43 527 5 24 19 32 132 76 174 68 490 159 556 161 11 1 52
-24 92 -54z m-1006 -381 c-6 -60 -14 -165 -18 -233 l-7 -124 -90 114 c-50 63
-103 130 -117 151 l-27 36 34 26 c44 34 228 146 233 142 1 -2 -2 -52 -8 -112z
m-269 -369 c54 -66 131 -157 172 -203 84 -92 77 -72 97 -290 6 -68 20 -173 31
-235 10 -62 19 -113 19 -114 0 -7 -217 33 -289 54 -148 42 -291 122 -367 206
-174 193 -126 444 136 717 l53 54 26 -34 c14 -19 69 -89 122 -155z m2245 -209
l75 -98 -78 -53 c-43 -29 -105 -67 -137 -85 l-59 -33 7 54 c11 96 26 292 26
357 l0 64 46 -54 c25 -29 79 -97 120 -152z m248 -374 c117 -210 177 -389 179
-532 1 -118 -33 -183 -115 -226 -74 -38 -253 -35 -413 7 -68 17 -263 85 -273
94 -2 2 13 54 33 116 29 91 73 258 100 384 3 14 37 37 107 72 57 29 150 83
208 121 58 38 108 67 112 65 4 -2 32 -47 62 -101z m-1919 -22 c34 -31 110 -96
169 -145 l108 -90 -63 -6 c-35 -4 -109 -7 -165 -8 l-101 -1 -21 128 c-12 70
-24 147 -28 172 l-6 45 23 -20 c13 -11 51 -45 84 -75z m1205 -228 c0 -24 -82
-287 -96 -310 -4 -6 -87 39 -206 111 -65 39 -115 74 -110 77 4 4 52 19 107 34
55 15 141 43 190 61 97 35 115 39 115 27z m-561 -271 c75 -49 190 -119 256
-157 66 -37 122 -69 124 -71 8 -6 -29 -75 -86 -163 -70 -107 -159 -195 -243
-239 -125 -67 -248 -42 -370 75 -105 100 -199 257 -273 454 -19 52 -38 107
-42 121 l-6 26 138 7 c76 4 179 14 228 20 50 7 101 14 114 15 16 0 74 -32 160
-88z"/>
<path d="M15950 10306 c-153 -32 -247 -146 -258 -308 -15 -235 170 -450 408
-475 131 -13 268 64 326 184 50 102 43 247 -18 367 -25 49 -99 129 -156 168
-85 59 -207 85 -302 64z m168 -215 c145 -75 191 -283 79 -351 -61 -38 -142
-21 -215 45 -62 56 -92 117 -92 188 0 125 108 180 228 118z"/>
<path d="M2042 6999 c-112 -14 -235 -50 -292 -84 -30 -18 -74 -42 -98 -54 -53
-27 -82 -72 -82 -128 0 -33 6 -46 29 -66 57 -48 207 -62 250 -23 17 16 71 33
175 57 106 24 256 -9 323 -73 38 -36 32 -96 -17 -155 -22 -26 -57 -71 -79 -99
-29 -37 -59 -61 -113 -89 -40 -21 -86 -49 -102 -62 -38 -31 -100 -63 -125 -63
-10 0 -57 -20 -103 -44 -45 -24 -108 -49 -138 -55 -30 -6 -69 -20 -85 -31 -18
-12 -47 -20 -72 -20 -30 0 -49 -6 -63 -20 -11 -11 -28 -20 -37 -20 -10 0 -36
-12 -58 -25 -25 -16 -55 -25 -80 -25 -29 0 -58 -11 -105 -40 -36 -22 -81 -43
-100 -46 -19 -4 -56 -19 -81 -35 -25 -16 -60 -34 -77 -40 -21 -7 -41 -25 -56
-53 -43 -75 -42 -88 14 -149 28 -31 70 -65 93 -76 24 -11 121 -39 217 -61 353
-81 493 -125 690 -215 156 -72 238 -66 297 22 47 70 46 108 -2 166 -22 26 -43
47 -49 47 -5 0 -69 27 -142 60 -74 33 -153 62 -176 66 -24 3 -55 15 -70 25
-15 10 -36 19 -48 19 -11 0 -28 5 -38 10 -9 6 -46 13 -82 18 -85 9 -89 28 -12
63 31 15 82 38 112 53 30 14 66 26 79 26 12 0 34 9 48 20 14 11 39 20 55 20
16 0 48 9 70 20 23 11 47 20 53 20 6 0 35 16 65 35 30 20 78 42 105 50 60 18
318 182 394 251 135 123 212 263 215 393 2 64 -1 78 -25 115 -35 55 -177 206
-194 206 -7 0 -47 16 -88 36 -117 55 -245 73 -395 53z"/>
<path d="M3895 6073 c-82 -25 -160 -54 -174 -64 -13 -10 -34 -19 -47 -19 -12
0 -26 -4 -29 -10 -3 -5 -17 -10 -30 -10 -13 0 -39 -12 -57 -28 -18 -15 -68
-54 -111 -86 -171 -129 -277 -307 -308 -515 -28 -196 24 -368 152 -506 34 -36
71 -71 84 -78 96 -53 128 -67 152 -67 16 0 57 -14 93 -32 64 -32 67 -32 202
-31 170 2 267 16 378 55 109 39 176 73 270 138 91 64 288 262 296 299 4 14 18
46 32 71 15 25 25 54 24 65 -2 11 4 40 13 65 23 64 30 195 15 261 -27 116 -52
148 -253 332 -164 150 -250 190 -412 192 -55 1 -109 4 -120 7 -12 4 -83 -13
-170 -39z m362 -320 c203 -170 222 -192 237 -276 8 -43 -32 -213 -64 -277 -21
-42 -84 -101 -132 -126 -18 -9 -49 -31 -68 -48 -46 -43 -208 -96 -310 -103
-88 -6 -159 7 -244 45 -77 34 -135 90 -128 125 1 4 -3 7 -8 7 -6 0 -10 10 -10
22 0 12 -8 30 -17 41 -14 15 -17 34 -15 100 3 86 28 152 97 262 50 78 158 180
229 215 73 36 214 68 303 69 62 1 64 0 130 -56z"/>
<path d="M6300 5558 c-19 -5 -52 -9 -72 -9 -21 0 -40 -4 -43 -10 -4 -5 -16 -9
-28 -9 -42 0 -131 -53 -149 -88 -9 -18 -24 -42 -33 -52 -31 -34 3 -128 57
-156 40 -21 134 -14 231 16 66 21 70 21 115 4 82 -30 119 -79 107 -143 -10
-52 -47 -130 -66 -136 -9 -3 -22 -18 -30 -33 -17 -34 -69 -81 -90 -82 -9 0
-27 -9 -41 -19 -13 -11 -37 -23 -51 -26 -15 -4 -30 -11 -33 -16 -3 -5 -14 -9
-25 -9 -10 0 -19 -4 -19 -10 0 -5 -12 -12 -27 -16 -34 -7 -53 -14 -118 -45
-27 -13 -56 -24 -63 -25 -8 -2 -22 -10 -31 -18 -10 -9 -25 -16 -34 -16 -15 0
-40 -10 -142 -55 -30 -13 -68 -27 -72 -26 -2 1 -19 -8 -38 -19 -20 -11 -40
-20 -45 -20 -5 0 -26 -11 -46 -25 -20 -14 -50 -25 -66 -25 -28 0 -60 -14 -86
-37 -7 -7 -22 -13 -33 -13 -27 0 -74 -74 -74 -119 0 -51 33 -92 102 -129 60
-31 303 -106 402 -122 30 -5 71 -21 91 -35 21 -14 53 -30 71 -35 19 -6 51 -26
72 -45 21 -19 44 -35 52 -35 7 0 37 -18 66 -40 30 -23 65 -43 79 -47 14 -3 36
-13 50 -22 63 -41 232 -3 246 56 4 15 15 44 25 64 l18 36 -60 61 c-33 34 -68
62 -78 62 -10 0 -29 8 -42 18 -64 49 -215 135 -311 178 -60 26 -108 50 -108
54 0 15 42 60 55 60 8 0 66 23 129 50 64 28 168 73 232 100 156 68 211 105
329 224 l100 101 41 125 c31 97 39 132 32 155 -4 17 -5 51 -2 78 5 34 3 52 -8
65 -7 9 -20 30 -28 45 -8 16 -26 35 -40 42 -14 7 -34 23 -45 35 -11 12 -38 31
-60 42 -22 11 -48 28 -58 37 -28 24 -263 69 -307 59z"/>
<path d="M8345 4615 c-92 -15 -209 -54 -269 -89 -44 -26 -52 -39 -80 -124 -16
-50 -16 -54 3 -96 22 -52 61 -69 156 -70 54 -1 67 3 129 43 66 41 73 43 138
42 77 -2 136 -19 221 -64 141 -74 154 -198 28 -261 -51 -26 -180 -58 -307 -76
-69 -9 -109 -24 -149 -55 -75 -57 -75 -57 -81 -131 l-7 -71 58 -49 c127 -109
136 -186 36 -311 -63 -81 -104 -98 -229 -98 -93 1 -105 3 -120 22 -9 11 -28
23 -42 26 -27 7 -193 188 -231 252 -24 40 -94 81 -157 91 -77 12 -161 -37
-196 -115 l-18 -40 31 -67 c37 -79 108 -169 188 -240 98 -86 213 -174 255
-195 51 -26 182 -49 278 -49 149 0 349 70 449 156 89 77 217 274 230 354 12
78 6 144 -18 193 -17 32 -21 51 -15 57 6 6 46 23 90 39 195 69 336 177 404
311 15 30 17 44 9 78 -5 23 -5 51 0 64 4 13 5 32 0 43 -4 11 -10 37 -14 58 -3
20 -10 37 -15 37 -5 0 -17 16 -26 35 -9 19 -20 35 -25 35 -5 0 -9 5 -9 11 0
15 -25 37 -55 49 -15 6 -29 19 -32 30 -3 11 -10 20 -17 20 -6 0 -73 32 -149
71 -134 68 -143 72 -250 85 -62 8 -112 13 -112 13 0 -1 -36 -7 -80 -14z"/>
</g>
</svg>
